# xmcd
#
# Track frame offsets: 
#        150
#        25175
#        41675
#        59237
#        79962
#        98437
#        117662
#        135325
#        153025
#        174500
#
# Disc length: 2611 seconds
#
# Revision: 0
# Processed by: cddbd v1.5.2PL0 Copyright (c) Steve Scherf et al.
# Submitted via: ExactAudioCopy v0.95a5
#
DISCID=7c0a310a
DTITLE=張清芳 - 大雨的夜裡
DYEAR=1995
DGENRE=Pop
TTITLE0=週末的夜我不哭
TTITLE1=大雨的夜裡
TTITLE2=再追一次
TTITLE3=你還愛我嗎
TTITLE4=But Who Knows
TTITLE5=漩渦
TTITLE6=不安
TTITLE7=沒有愛的男人
TTITLE8=溫度
TTITLE9=你睡了嗎
EXTD=
EXTT0=
EXTT1=
EXTT2=
EXTT3=
EXTT4=
EXTT5=
EXTT6=
EXTT7=
EXTT8=
EXTT9=
PLAYORDER=
